<svg width="600" height="600" viewBox="0 0 600 600" fill="none" xmlns="http://www.w3.org/2000/svg">
<path fill-rule="evenodd" clip-rule="evenodd" d="M300 580C454.64 580 580 454.64 580 300C580 145.36 454.64 20 300 20C145.36 20 20 145.36 20 300C20 454.64 145.36 580 300 580ZM431.232 201.144C442.357 188.866 441.422 169.894 429.145 158.769C416.867 147.644 397.895 148.578 386.769 160.856L298.307 258.484L212.503 161.16C201.546 148.732 182.589 147.54 170.16 158.497C157.732 169.454 156.54 188.411 167.497 200.84L257.522 302.951L168.043 399.057C156.753 411.184 157.431 430.167 169.557 441.457C181.684 452.747 200.667 452.069 211.957 439.943L298.299 347.205L387.325 440.241C398.78 452.212 417.771 452.63 429.742 441.175C441.712 429.72 442.131 410.73 430.676 398.759L338.99 302.943L431.232 201.144Z" fill="black"/>
</svg>
