<svg width="600" height="600" viewBox="0 0 600 600" fill="none" xmlns="http://www.w3.org/2000/svg">
<path fill-rule="evenodd" clip-rule="evenodd" d="M300 580C454.64 580 580 454.64 580 300C580 145.36 454.64 20 300 20C145.36 20 20 145.36 20 300C20 454.64 145.36 580 300 580ZM421.66 338.754C432.518 326.239 431.175 307.292 418.661 296.433C406.146 285.575 387.198 286.918 376.34 299.432L332.339 350.147V169C332.339 152.431 318.907 139 302.339 139C285.77 139 272.339 152.431 272.339 169V352.935L223.192 298.906C212.044 286.65 193.07 285.752 180.813 296.901C168.557 308.049 167.659 327.023 178.808 339.28L280.146 450.687C285.914 457.028 294.119 460.598 302.69 460.498C311.262 460.397 319.381 456.635 324.998 450.161L421.66 338.754Z" fill="black"/>
</svg>
