<svg width="600" height="600" viewBox="0 0 600 600" fill="none" xmlns="http://www.w3.org/2000/svg">
<path d="M581 299.5C581 144.032 454.968 18 299.5 18C144.032 18 18 144.032 18 299.5C18 433.171 111.169 545.081 236.11 573.834V533V493.084C236.11 493.084 215.844 497.588 192.199 495.711C168.554 493.835 157.949 485.473 149.415 476.947C140.88 468.422 129.15 435.264 119.768 425.507C112.589 418.042 100.871 414.326 97.554 408.286C95.5129 404.57 99.4605 400.61 103.704 400.552C126.665 400.243 159.967 439.923 159.967 439.923C159.967 439.923 176.813 459.684 201.207 459.684C216.785 459.684 227.925 456.47 233.942 454.147C237.184 452.895 238.835 449.587 239.033 446.118C239.56 436.881 243.272 428.042 249.635 421.16L256.002 414.274C256.002 414.274 213.592 410.521 177.188 389.505C177.188 389.505 119.768 368.773 119.768 292.042C119.768 215.311 154.295 194.354 154.295 194.354C154.295 194.354 147.539 170.336 148.665 154.198C149.442 143.062 153.793 129.603 156.416 122.329C157.595 119.061 160.601 116.867 164.077 117.006C170.797 117.276 182.904 118.685 197.079 124.55C218.847 133.557 237.612 147.443 237.612 147.443C237.612 147.443 267.505 134.86 302.886 135.79C338.267 136.72 368.156 147.681 368.156 147.681C368.156 147.681 386.921 133.795 408.689 124.788C422.864 118.923 434.971 117.513 441.691 117.244C445.167 117.105 448.173 119.298 449.352 122.567C451.974 129.84 456.326 143.3 457.103 154.436C458.229 170.573 451.473 194.592 451.473 194.592C451.473 194.592 486 215.549 486 292.279C486 369.01 428.58 389.742 428.58 389.742C392.175 410.759 349.766 414.511 349.766 414.511C362.005 420.99 369.658 433.694 369.658 447.531L370.155 530.5L369.658 572.187C491.181 541.013 581 430.746 581 299.5Z" fill="black"/>
</svg>
