<svg width="600" height="600" viewBox="0 0 600 600" fill="none" xmlns="http://www.w3.org/2000/svg">
<path fill-rule="evenodd" clip-rule="evenodd" d="M300 580C454.64 580 580 454.64 580 300C580 145.36 454.64 20 300 20C145.36 20 20 145.36 20 300C20 454.64 145.36 580 300 580ZM262.129 409.335C261.645 417.145 267.996 423.566 275.821 423.566H304.382C312.114 423.566 318.303 417.286 318.93 409.58C320.901 385.377 328.189 366.319 340.795 352.405L374.261 319.421C407.42 284.808 424 249.686 424 214.055C424 178.017 413.152 149.716 391.455 129.152C369.963 108.384 339.874 98 301.189 98C263.936 98 233.642 108.18 210.308 128.541C190.582 145.732 179.118 167.589 175.918 194.111C174.984 201.855 181.375 208.253 189.175 208.253H217.8C225.532 208.253 231.594 201.915 233.133 194.338C235.602 182.177 241.503 172.054 250.836 163.968C263.527 152.974 280.311 147.476 301.189 147.476C322.681 147.476 339.055 153.584 350.313 165.801C361.571 177.813 367.2 194.509 367.2 215.888C367.2 238.081 358.603 258.849 341.409 278.191L301.189 319.421C285.428 336.524 274.989 352.1 269.872 366.149C265.801 377.324 263.22 391.719 262.129 409.335ZM266.324 464.832C260.797 470.94 258.034 478.575 258.034 487.738C258.034 496.9 260.797 504.535 266.324 510.643C272.055 516.548 280.447 519.5 291.5 519.5C302.553 519.5 310.945 516.548 316.676 510.643C322.408 504.535 325.273 496.9 325.273 487.738C325.273 478.575 322.408 470.94 316.676 464.832C310.945 458.52 302.553 455.364 291.5 455.364C280.447 455.364 272.055 458.52 266.324 464.832Z" fill="black"/>
</svg>
