<svg width="600" height="600" viewBox="0 0 600 600" fill="none" xmlns="http://www.w3.org/2000/svg">
<path fill-rule="evenodd" clip-rule="evenodd" d="M100 130L135.594 527.906L294.969 572L454.875 527.906L489.938 130H100ZM187.656 383.938H237.062L240.25 423.25L294.969 437.594L349.156 423.25L355 360.031H185.531L172.25 212.344H417.156L412.906 261.219H226.438L230.688 311.156H408.125L394.844 460.969L294.969 488.594L194.562 460.969L187.656 383.938Z" fill="black"/>
<path d="M416.788 32H393V102H449V78.5H416.788V32Z" fill="black" stroke="black"/>
<path d="M328.5 32H304V102H327V67.5L343.5 92L359 67.5V102H383V32H358.5L343.5 56.5L328.5 32Z" fill="black" stroke="black"/>
<path d="M230 55.5V32H294.5V55.5H274V102H250V55.5H230Z" fill="black" stroke="black"/>
<path d="M174.5 32H151V102H175V78.5H196L195.5 102H219.5V32H195.5V55H174.5V32Z" fill="black" stroke="black"/>
</svg>
