<svg width="600" height="600" viewBox="0 0 600 600" fill="none" xmlns="http://www.w3.org/2000/svg">
<path fill-rule="evenodd" clip-rule="evenodd" d="M46 96V504C46 531.614 68.3858 554 96 554H504C531.614 554 554 531.614 554 504V96C554 68.3858 531.614 46 504 46H96C68.3858 46 46 68.3858 46 96ZM215.863 265.075C251.517 265.075 280.421 236.171 280.421 200.517C280.421 164.862 251.517 135.958 215.863 135.958C180.208 135.958 151.304 164.862 151.304 200.517C151.304 236.171 180.208 265.075 215.863 265.075ZM111.3 465.595L178.714 388.501C184.899 381.429 195.658 380.743 202.69 386.973L237.582 417.886C244.583 424.088 255.286 423.44 261.487 416.439L402.34 257.412C408.819 250.096 420.129 249.769 427.021 256.697L497.46 327.51C507.915 338.021 513.783 352.243 513.783 367.068V476.742C513.783 486.094 506.202 493.675 496.85 493.675H124.047C109.501 493.675 101.725 476.545 111.3 465.595Z" fill="black"/>
</svg>
