<svg width="600" height="600" viewBox="0 0 600 600" fill="none" xmlns="http://www.w3.org/2000/svg">
<path d="M400 407.5C396.377 414.067 396.378 414.067 396.378 414.067L396.38 414.068L396.384 414.07L396.396 414.077L396.437 414.099L396.582 414.179C396.708 414.248 396.892 414.347 397.133 414.477C397.617 414.737 398.335 415.121 399.295 415.625C401.215 416.632 404.103 418.124 408.021 420.083C415.857 424.001 427.816 429.791 444.396 437.327L444.587 437.414L444.782 437.49C461.853 444.129 468.382 450.91 470.867 454.938C472.107 456.948 472.45 458.437 472.55 459.19C472.586 459.467 472.593 459.666 472.593 459.776L472.437 460.51L472.518 461.518C472.518 461.52 472.518 461.523 472.518 461.525C472.52 461.583 472.523 461.718 472.518 461.919C472.51 462.324 472.472 462.979 472.345 463.803C472.089 465.466 471.488 467.692 470.131 469.953C467.671 474.054 461.738 479.908 445.973 481.018C431.006 482.072 419.452 475.289 411.298 467.698C407.233 463.913 404.142 460.036 402.072 457.104C401.042 455.644 400.278 454.438 399.784 453.621C399.537 453.212 399.359 452.903 399.25 452.709C399.195 452.612 399.158 452.545 399.138 452.508L399.131 452.495L399.128 452.49L399.126 452.486L399.123 452.48L399.121 452.477L395.476 445.581L388.721 449.521L346.721 474.021L340.514 477.642L343.866 483.998L350.5 480.5C343.866 483.998 343.867 483.999 343.868 484.001L343.87 484.005L343.875 484.015L343.89 484.043L343.935 484.128C343.952 484.159 343.97 484.193 343.992 484.233C344.02 484.285 344.053 484.346 344.091 484.415C344.223 484.655 344.411 484.995 344.655 485.422C345.143 486.277 345.853 487.487 346.777 488.968C348.621 491.926 351.332 495.991 354.835 500.485C361.768 509.381 372.144 520.399 385.428 527.595C398.586 534.722 414.244 538.13 426.212 539.803C432.269 540.649 437.542 541.073 441.313 541.285C443.201 541.391 444.719 541.445 445.778 541.472C445.949 541.476 446.107 541.48 446.254 541.483C446.563 541.49 446.818 541.494 447.015 541.496C447.151 541.498 447.261 541.499 447.341 541.499C447.386 541.501 447.438 541.502 447.499 541.504C447.684 541.51 447.943 541.516 448.27 541.521C448.924 541.53 449.852 541.533 451.016 541.509C453.343 541.461 456.629 541.308 460.574 540.887C468.428 540.05 479.077 538.137 490.019 533.78C500.974 529.418 512.433 522.521 521.585 511.608C530.797 500.623 537.349 485.947 538.974 466.628C541.436 437.353 529.993 417.082 517.886 404.283C511.888 397.942 505.752 393.449 501.106 390.531C498.776 389.068 496.802 387.989 495.378 387.262C494.666 386.899 494.089 386.622 493.673 386.429C493.483 386.34 493.326 386.269 493.204 386.215L493.04 386.132C492.81 386.016 492.472 385.845 492.038 385.627C491.172 385.19 489.923 384.564 488.387 383.8C485.318 382.274 481.097 380.194 476.492 377.987C467.578 373.713 456.691 368.695 450.132 366.472C435.443 360.374 429.2 354.302 426.575 350.564C425.257 348.687 424.778 347.302 424.603 346.616C424.549 346.404 424.521 346.247 424.507 346.152L424.51 346.117L424.496 345.76C424.496 345.759 424.496 345.757 424.496 345.756C424.496 345.755 424.496 345.754 424.496 345.752C424.496 345.737 424.495 345.708 424.495 345.665C424.494 345.557 424.495 345.366 424.504 345.104C424.521 344.576 424.568 343.775 424.691 342.795C424.943 340.797 425.484 338.268 426.582 335.844C427.666 333.449 429.21 331.33 431.415 329.792C433.568 328.291 436.839 327 442 327C452.478 327 459.077 331.529 463.211 336.057C465.327 338.374 466.8 340.708 467.734 342.45C468.198 343.315 468.518 344.014 468.712 344.466C468.743 344.539 468.771 344.606 468.796 344.665C468.847 344.788 468.883 344.881 468.906 344.939C468.917 344.968 468.925 344.989 468.929 345.001C468.93 345.002 468.93 345.002 468.93 345.003C468.932 345.007 468.933 345.011 468.933 345.012L472.071 354.033L480.106 348.776L520.606 322.276L526.753 318.254L522.86 312.025L516.5 316C522.86 312.025 522.859 312.023 522.858 312.022L522.856 312.019L522.851 312.011L522.837 311.988L522.791 311.916C522.754 311.857 522.702 311.775 522.636 311.672C522.503 311.466 522.314 311.174 522.07 310.806C521.583 310.071 520.877 309.03 519.974 307.759C518.173 305.222 515.569 301.744 512.333 297.948C505.985 290.498 496.701 281.215 485.854 275.792C475.004 270.367 461.553 268.413 451.396 267.705C446.21 267.344 441.655 267.295 438.39 267.336C436.755 267.357 435.434 267.4 434.51 267.439C434.048 267.458 433.685 267.477 433.43 267.491C433.303 267.498 433.202 267.504 433.131 267.508L433.083 267.511L433.074 267.512L433.051 267.513L433.044 267.514L433.017 267.515L433.008 267.516L433.004 267.516L432.988 267.517C432.938 267.52 432.873 267.524 432.793 267.53C432.632 267.541 432.412 267.558 432.136 267.582C431.583 267.629 430.805 267.706 429.833 267.825C427.89 268.062 425.16 268.471 421.893 269.162C415.386 270.539 406.596 273.07 397.618 277.713C379.409 287.129 360.448 305.329 358.512 339.07C357.053 364.508 366.413 383.263 376.113 395.558C380.941 401.678 385.86 406.213 389.595 409.235C391.467 410.75 393.055 411.895 394.203 412.678C394.778 413.07 395.244 413.372 395.582 413.586C395.752 413.693 395.889 413.778 395.992 413.841C396.025 413.861 396.055 413.879 396.081 413.895L396.121 413.919L396.166 413.946L396.184 413.956L396.191 413.96C396.194 413.962 396.198 413.964 400 407.5ZM400 407.5L396.377 414.067L396.287 414.017L396.198 413.964L400 407.5ZM216.122 458.15L216.119 458.141L213.222 449.277L205.174 454.049L162.174 479.549L156.852 482.706L158.94 488.531L166 486C158.94 488.531 158.941 488.535 158.943 488.54L158.947 488.55L158.955 488.573L158.978 488.635C158.995 488.682 159.018 488.743 159.046 488.815C159.101 488.961 159.176 489.156 159.273 489.396C159.467 489.878 159.747 490.544 160.121 491.367C160.867 493.012 161.992 495.292 163.56 497.981C166.69 503.348 171.625 510.416 178.902 517.317C193.627 531.282 217.535 544.145 254.046 541.48C291.178 538.77 310.371 519.746 319.875 501.019C324.528 491.853 326.792 482.924 327.904 476.323C328.462 473.009 328.736 470.242 328.87 468.271C328.938 467.284 328.97 466.493 328.986 465.928C328.989 465.815 328.992 465.712 328.993 465.617C328.996 465.475 328.998 465.354 328.999 465.255C329 465.172 329 465.104 329 465.052L329 465V464.985V277.5V270H321.5H269.5H262V277.5V464.721C261.993 464.793 261.982 464.893 261.967 465.018C261.919 465.402 261.826 466.009 261.652 466.763C261.299 468.297 260.649 470.285 259.494 472.225C257.415 475.716 253.336 479.808 243.847 480.002C233.914 480.204 227.173 475.173 222.587 469.489C220.282 466.633 218.631 463.724 217.558 461.516C217.027 460.421 216.649 459.524 216.413 458.927C216.296 458.629 216.214 458.408 216.167 458.277C216.144 458.212 216.129 458.169 216.122 458.15ZM27.5 27.5H572.5V572.5H27.5V27.5Z" fill="black" stroke="black" stroke-width="15"/>
</svg>
