<svg width="600" height="600" viewBox="0 0 600 600" fill="none" xmlns="http://www.w3.org/2000/svg">
<circle cx="300" cy="300" r="280" fill="black"/>
<rect x="196" y="325" width="110" height="50" rx="25" transform="rotate(-180 196 325)" fill="white"/>
<rect x="513" y="325" width="110" height="50" rx="25" transform="rotate(-180 513 325)" fill="white"/>
<rect x="324.5" y="403.5" width="110" height="50" rx="25" transform="rotate(90 324.5 403.5)" fill="white"/>
<rect x="324.5" y="86.5" width="110" height="50" rx="25" transform="rotate(90 324.5 86.5)" fill="white"/>
<rect x="390.363" y="355.508" width="110" height="50" rx="25" transform="rotate(45 390.363 355.508)" fill="white"/>
<rect x="166.21" y="131.355" width="110" height="50" rx="25" transform="rotate(45 166.21 131.355)" fill="white"/>
<rect x="355.008" y="209.137" width="110" height="50" rx="25" transform="rotate(-45 355.008 209.137)" fill="white"/>
<rect x="130.855" y="433.29" width="110" height="50" rx="25" transform="rotate(-45 130.855 433.29)" fill="white"/>
</svg>
