<svg width="600" height="600" viewBox="0 0 600 600" fill="none" xmlns="http://www.w3.org/2000/svg">
<path d="M579 111.681C577.687 107.902 577.687 107.902 577.687 107.902L577.687 107.902L577.684 107.903L577.672 107.907L577.625 107.924L577.44 107.988L576.729 108.234C576.112 108.448 575.221 108.757 574.122 109.136C571.924 109.895 568.9 110.936 565.594 112.067C558.964 114.333 551.252 116.94 546.77 118.353C543.244 119.465 537.161 120.773 531.118 121.939C535.755 118.15 540.88 113.546 545.243 108.609C551.09 101.991 556.773 91.8093 560.907 83.5597C563 79.3822 564.744 75.6019 565.965 72.8654C566.576 71.4961 567.057 70.3856 567.386 69.6143C567.551 69.2285 567.678 68.9275 567.765 68.721C567.808 68.6178 567.841 68.5383 567.864 68.4836L567.89 68.4205L567.898 68.4032L567.9 68.3982L567.9 68.3966C567.901 68.396 567.901 68.3956 564.203 66.8709L567.901 68.3956C568.547 66.8293 568.135 65.026 566.875 63.8943C565.614 62.7625 563.777 62.5478 562.289 63.3582L562.289 63.3584L562.287 63.3596L562.277 63.3651L562.234 63.3882L562.06 63.4822C561.906 63.5655 561.676 63.6895 561.377 63.8501C560.777 64.1715 559.899 64.6395 558.791 65.2226C556.573 66.3891 553.436 68.0146 549.766 69.8468C542.406 73.5219 532.989 77.9865 524.568 81.2568C516.282 84.4751 507.586 86.565 500.915 87.8507C497.591 88.4914 494.795 88.9275 492.837 89.2027C492.508 89.249 492.203 89.2907 491.923 89.328C471.349 64.6473 440.121 51.316 407.98 53.6088L398.284 54.3004C398.081 54.3149 397.88 54.3448 397.681 54.39L379.976 58.4187C342.786 66.8813 312.724 94.1674 300.71 130.367L299.722 133.342C293.917 150.833 292.253 169.434 294.863 187.678L295.555 192.516L281.792 191.124C198.423 182.692 121.927 141.147 69.4655 75.8073C68.6409 74.7804 67.3637 74.2251 66.0502 74.3226C64.7368 74.4202 63.5556 75.158 62.8917 76.2955C35.4838 123.259 44.5646 182.983 84.6928 219.678L88.2508 222.931C76.1709 220.839 64.4701 216.89 53.5688 211.21L52.4429 210.624C51.2454 210 49.8139 210.022 48.6365 210.683C47.4591 211.344 46.6946 212.554 46.6036 213.901C44.7014 242.08 54.4909 269.797 73.668 290.53L82.6145 300.202C92.3912 310.772 104.648 318.739 118.276 323.383L126.016 326.019C114.452 327.962 102.589 327.679 91.0714 325.148C89.6716 324.841 88.2142 325.306 87.251 326.367C86.2878 327.428 85.966 328.924 86.4074 330.287C99.4887 370.694 133.864 400.539 175.708 407.816L185.837 409.578C142.758 440.226 90.2397 454.949 37.3234 451.025L29.4105 450.438C27.5659 450.301 25.8682 451.447 25.3047 453.209C24.7413 454.97 25.4592 456.889 27.0407 457.848L33.9896 462.061C73.9349 486.281 118.913 501.559 165.328 506.787C362.821 529.031 534.807 370.091 526.765 171.805C527.1 171.557 527.479 171.276 527.897 170.963C529.707 169.609 532.261 167.662 535.251 165.279C541.22 160.523 548.983 153.984 556.051 146.926C563.172 139.814 569.75 131.533 574.519 125.082C576.912 121.846 578.866 119.047 580.224 117.054C580.904 116.057 581.435 115.26 581.799 114.71C581.98 114.435 582.12 114.221 582.216 114.074C582.263 114.001 582.3 113.944 582.325 113.905L582.354 113.86L582.362 113.847L582.365 113.843L582.366 113.842C582.366 113.842 582.366 113.841 579 111.681ZM579 111.681L577.687 107.902C579.298 107.342 581.087 107.866 582.142 109.205C583.197 110.545 583.287 112.406 582.366 113.841L579 111.681Z" fill="black" stroke="black" stroke-width="8" stroke-linecap="round" stroke-linejoin="round"/>
</svg>
