<svg xmlns="http://www.w3.org/2000/svg" width="1920" height="980" viewBox="0 0 1920 980"><title>Asset 19</title><g fill="#FFF"><path d="M959.799 0C826.876 0 810.361 0 758.401 2.819a358.111 358.111 0 0 0-119.228 22.959 248.122 248.122 0 0 0-143.395 143.395 358.07 358.07 0 0 0-22.96 120.838C470 340.361 470 356.876 470 489.799c0 132.922 0 149.84 2.819 201.397a360.121 360.121 0 0 0 22.96 118.824 241.68 241.68 0 0 0 54.779 87.406 241.673 241.673 0 0 0 88.615 56.794 359.3 359.3 0 0 0 120.839 22.557C812.376 979.194 828.891 980 961.41 980s149.84 0 201.397-3.223a362.503 362.503 0 0 0 118.824-22.557 251.345 251.345 0 0 0 143.396-143.395 362.528 362.528 0 0 0 22.556-118.824c2.417-52.363 3.223-68.878 3.223-201.397s0-149.438-3.223-201.398a359.286 359.286 0 0 0-22.556-118.824 248.125 248.125 0 0 0-144.201-144.604 360.094 360.094 0 0 0-118.824-22.959C1109.639 0 1093.124 0 959.799 0m0 88.212c130.908 0 146.617 0 198.175 2.82a275.506 275.506 0 0 1 91.032 16.917 158.707 158.707 0 0 1 56.391 36.654 161.097 161.097 0 0 1 36.654 56.794 275.896 275.896 0 0 1 16.515 91.032c2.417 51.558 3.223 66.864 3.223 197.772s0 146.617-3.223 198.176a278.325 278.325 0 0 1-16.515 91.031 164.35 164.35 0 0 1-36.654 56.392 157.9 157.9 0 0 1-56.391 36.251 265.038 265.038 0 0 1-91.032 16.918c-51.558 2.416-67.267 2.819-198.175 2.819s-146.215 0-197.772-2.819a263.057 263.057 0 0 1-90.629-17.32 154.284 154.284 0 0 1-56.392-36.252 158.703 158.703 0 0 1-36.654-56.391 286.806 286.806 0 0 1-16.917-91.032c-2.417-51.558-2.819-67.267-2.819-198.175s0-146.215 2.819-197.772a284.328 284.328 0 0 1 16.515-90.629 161.118 161.118 0 0 1 93.448-93.448 273.065 273.065 0 0 1 91.031-16.917c51.558-2.417 67.267-2.82 197.772-2.82"/><path d="M959.799 653.333c-90.318 0-163.535-73.217-163.535-163.534 0-90.318 73.217-163.535 163.535-163.535 90.317 0 163.534 73.217 163.534 163.535.223 90.095-72.633 163.312-162.728 163.534h-.806m0-414.878c-139.036 0-251.747 112.711-251.747 251.748.001 139.035 112.712 251.746 251.747 251.746 139.036 0 251.747-112.711 251.747-251.747l-.001-.402c.001-138.813-112.529-251.344-251.343-251.345a27.068 27.068 0 0 0-.403 0m320.625-10.07c0 32.479-26.33 58.808-58.809 58.808s-58.808-26.33-58.808-58.808c0-32.479 26.329-58.808 58.808-58.808s58.809 26.329 58.809 58.808"/></g></svg>