<svg xmlns="http://www.w3.org/2000/svg" width="1920" height="980" viewBox="0 0 1920 980"><title>Asset 18</title><path d="M489.6 326.813h202.167V980H489.6zm100.422-85.887c66.165-.243 119.604-54.077 119.362-120.241v-.001C709.629 54.446 656.259.485 590.022 0c-66.53 4.025-117.2 61.221-113.176 127.75 3.686 60.914 52.263 109.491 113.176 113.176m425.035 395.964c0-91.613 44.045-146.229 123.325-146.229 79.281 0 110.112 52.413 110.112 146.229V980h201.285V566.418c0-176.18-99.101-259.865-237.842-259.865-80.01-1.043-154.718 39.904-196.881 107.91v-88.09H822.58V980h193.797l-1.32-343.11z" fill="#FFF"/></svg>