<svg xmlns="http://www.w3.org/2000/svg" width="1920" height="980" viewBox="0 0 1920 980"><title>Asset 17</title><path fill="#FFF" d="M357.001 867.257A698.4 698.4 0 0 0 736.043 978.47c386.551 2.447 701.897-308.93 704.345-695.481a698.713 698.713 0 0 0-.847-39.136 491.256 491.256 0 0 0 123.456-128.048 494.823 494.823 0 0 1-142.332 37.241 247.43 247.43 0 0 0 109.683-135.19 489.746 489.746 0 0 1-156.616 60.198c-92.765-100.72-249.615-107.168-350.335-14.404-66.722 61.452-94.558 154.435-72.58 242.441-199.221-10.471-384.559-105.274-509.64-260.688-65.643 112.97-32.133 257.507 76.522 330.067a243.859 243.859 0 0 1-109.683-30.608c-1.167 118.77 82.062 221.682 198.448 245.383a248.455 248.455 0 0 1-111.723 4.591c32.649 99.295 124.064 167.448 228.548 170.391a495.865 495.865 0 0 1-366.288 102.03"/></svg>