<svg xmlns="http://www.w3.org/2000/svg" width="1920" height="980" viewBox="0 0 1920 980"><title>Asset 20</title><path fill="#FFF" d="M1637.523 229.907c-7.928-92.084-60.983-207.343-174.412-211.612a6927.011 6927.011 0 0 0-1006.223 0c-98.793 10.367-166.484 131.114-174.412 225.638a2679.68 2679.68 0 0 0 0 494.574c7.928 92.084 73.79 212.831 174.412 226.247a7588.415 7588.415 0 0 0 1006.223 0c97.573-17.685 166.484-134.163 174.412-226.247a2813.195 2813.195 0 0 0 0-506.771v-1.829zM788.027 731.799V239.664l430.541 248.201-430.541 243.934z"/></svg>